<svg xmlns="http://www.w3.org/2000/svg" viewBox="0 0 24 24" fill="none">
  <circle cx="12" cy="12" r="1.5" fill="#6EE7A0" />
  <path d="M12 13.5 L12 17" stroke="#6EE7A0" stroke-width="1.4" stroke-linecap="round" />
  <path d="M12 17 L7.5 22" stroke="#6EE7A0" stroke-width="1.2" stroke-linecap="round" />
  <path d="M12 17 L16.5 22.5" stroke="#6EE7A0" stroke-width="1.1" stroke-linecap="round" />
  <path d="M12 17 L12.5 23" stroke="#6EE7A0" stroke-width="0.9" stroke-linecap="round" />
  <path d="M9.5 19.5 L5.5 20.5" stroke="#6EE7A0" stroke-width="0.8" stroke-linecap="round" />
  <path d="M14.5 20 L18 20.5" stroke="#6EE7A0" stroke-width="0.7" stroke-linecap="round" />
  <path d="M7.5 22 L5 23" stroke="#6EE7A0" stroke-width="0.6" stroke-linecap="round" />
  <path d="M16.5 22.5 L19 23.5" stroke="#6EE7A0" stroke-width="0.6" stroke-linecap="round" />
  <path d="M12 10.5 L12 7" stroke="#6EE7A0" stroke-width="1.3" stroke-linecap="round" />
  <path d="M12 7 L8.5 3.5" stroke="#6EE7A0" stroke-width="1.1" stroke-linecap="round" />
  <path d="M12 7 L16 3" stroke="#6EE7A0" stroke-width="1" stroke-linecap="round" />
  <path d="M12 7 L11 2" stroke="#6EE7A0" stroke-width="0.8" stroke-linecap="round" />
  <path d="M8.5 3.5 L6 2" stroke="#6EE7A0" stroke-width="0.7" stroke-linecap="round" />
  <path d="M16 3 L19 1.5" stroke="#6EE7A0" stroke-width="0.7" stroke-linecap="round" />
  <path d="M10 5 L7 5.5" stroke="#6EE7A0" stroke-width="0.7" stroke-linecap="round" />
  <path d="M14 5 L16.5 6" stroke="#6EE7A0" stroke-width="0.6" stroke-linecap="round" />
  <path d="M13.5 12 L18 10.5" stroke="#6EE7A0" stroke-width="0.9" stroke-linecap="round" />
  <path d="M18 10.5 L21 9" stroke="#6EE7A0" stroke-width="0.7" stroke-linecap="round" />
  <path d="M18 10.5 L20 12.5" stroke="#6EE7A0" stroke-width="0.6" stroke-linecap="round" />
  <path d="M13.5 14 L17 15.5" stroke="#6EE7A0" stroke-width="0.7" stroke-linecap="round" />
  <path d="M10.5 12 L6 13" stroke="#6EE7A0" stroke-width="0.9" stroke-linecap="round" />
  <path d="M6 13 L3 14" stroke="#6EE7A0" stroke-width="0.7" stroke-linecap="round" />
  <path d="M6 13 L4 11" stroke="#6EE7A0" stroke-width="0.6" stroke-linecap="round" />
  <path d="M10.5 10 L7 9" stroke="#6EE7A0" stroke-width="0.7" stroke-linecap="round" />
  <circle cx="7.5" cy="22" r="0.7" fill="#6EE7A0" opacity="0.5" />
  <circle cx="16.5" cy="22.5" r="0.7" fill="#6EE7A0" opacity="0.45" />
  <circle cx="12.5" cy="23" r="0.6" fill="#6EE7A0" opacity="0.4" />
  <circle cx="5" cy="23" r="0.5" fill="#6EE7A0" opacity="0.3" />
  <circle cx="19" cy="23.5" r="0.5" fill="#6EE7A0" opacity="0.3" />
  <circle cx="8.5" cy="3.5" r="0.7" fill="#6EE7A0" opacity="0.5" />
  <circle cx="16" cy="3" r="0.7" fill="#6EE7A0" opacity="0.45" />
  <circle cx="11" cy="2" r="0.6" fill="#6EE7A0" opacity="0.4" />
  <circle cx="6" cy="2" r="0.5" fill="#6EE7A0" opacity="0.3" />
  <circle cx="19" cy="1.5" r="0.5" fill="#6EE7A0" opacity="0.3" />
  <circle cx="21" cy="9" r="0.6" fill="#6EE7A0" opacity="0.35" />
  <circle cx="3" cy="14" r="0.6" fill="#6EE7A0" opacity="0.35" />
  <circle cx="5.5" cy="20.5" r="0.5" fill="#6EE7A0" opacity="0.3" />
  <circle cx="18" cy="20.5" r="0.5" fill="#6EE7A0" opacity="0.3" />
  <circle cx="7" cy="9" r="0.5" fill="#6EE7A0" opacity="0.3" />
  <circle cx="17" cy="15.5" r="0.5" fill="#6EE7A0" opacity="0.3" />
</svg>
